<svg xmlns="http://www.w3.org/2000/svg" xmlns:xlink="http://www.w3.org/1999/xlink" id="img3DBtn" class="btnMudi3D" viewBox="0 0 300 300">
                <defs>
                    <style>
                        .cls-1{filter:url(#drop-shadow-11);}
                        .cls-2{fill:#1A4EA2;opacity:.5;}
                        .cls-2,.cls-3{stroke-width:0px;}
                        .cls-4{fill:#eeeeee;stroke:#fff;stroke-miterlimit:10;stroke-width:7.53px;}
                        .cls-3{fill:#1a4ea2;}
                    </style>
                    
                    <filter id="drop-shadow-11" filterUnits="userSpaceOnUse">
                        <feOffset dx="0" dy="0"></feOffset><feGaussianBlur result="blur" stdDeviation="12"></feGaussianBlur>
                        <feFlood flood-color="#000" flood-opacity=".08"></feFlood>
                        <feComposite in2="blur" operator="in"></feComposite><feComposite in="SourceGraphic"></feComposite>
                    </filter>
                    
                </defs>
                <g class="cls-1"><circle class="cls-4" cx="150" cy="150" r="142.54"></circle>
                    <path id="Shape" class="cls-2" d="M255.16,149.99c0-21.39-23.28-39.47-57.84-48.14-8.46-35.37-26.16-59.18-47.05-59.18s-38.58,23.85-47.06,59.25c-4.89,1.25-9.62,2.68-14.12,4.32-1.95.72-2.97,2.91-2.26,4.9.7,1.99,2.85,3.03,4.8,2.33,3.16-1.15,6.45-2.16,9.82-3.1-.43,2.36-.8,4.71-1.15,7.11h.2c-3.46,23.05-3.24,46.53.63,69.5h-.09c.16.84.29,1.71.45,2.59v.04c-28.77-8.09-48.52-22.96-48.53-39.55,0-8.74,5.64-17.44,16.01-24.94l-1.19,6.29h0c-.2,1.01,0,2.05.56,2.9.56.85,1.42,1.43,2.41,1.63h0c.24.05.48.07.72.07,1.79-.02,3.32-1.31,3.68-3.11l3.01-15.96h0c.19-1-.01-2.03-.57-2.87-.55-.84-1.41-1.42-2.39-1.61h0l-15.65-3.23c-2.02-.43-4,.87-4.47,2.93-.1.5-.1,1.02,0,1.52.27,1.52,1.4,2.73,2.88,3.06h.18l7.32,1.45c-12.92,9.13-20.06,20.25-20.06,31.79h0c0,21.39,23.28,39.47,57.84,48.15,8.48,35.36,26.16,59.17,47.04,59.17,11.61,0,22.78-7.75,31.8-21.69l.93,7.65c.25,2.1,2.12,3.59,4.17,3.34,2.06-.26,3.51-2.16,3.26-4.27h0l-1.89-16.14c-.11-1.01-.62-1.93-1.4-2.56-.78-.63-1.78-.91-2.76-.79h0l-15.78,1.94c-2.05.26-3.51,2.17-3.26,4.26h0c.25,2.1,2.11,3.59,4.17,3.34l6.22-.77c-7.54,11.58-16.45,17.98-25.4,17.98-16.21,0-30.73-20.21-38.65-49.62,12.75,2.46,25.69,3.69,38.65,3.65,12.99.04,25.96-1.19,38.72-3.67-.92,3.44-1.89,6.81-3.02,10.03-.17.49-.24,1-.2,1.51.09,1.83,1.43,3.32,3.2,3.58,1.77.26,3.47-.8,4.06-2.52h0c1.6-4.6,3-9.44,4.23-14.45,34.6-8.67,57.91-26.76,57.91-48.15h0l-.03.03-.03-.03ZM199.09,189.56c2.44-13.04,3.66-26.28,3.63-39.56h0c.04-13.26-1.15-26.5-3.56-39.53,28.76,8.1,48.51,22.96,48.52,39.55,0,16.59-19.79,31.44-48.57,39.55h-.01ZM111.61,100.05c7.9-29.45,22.44-49.68,38.66-49.68s30.73,20.2,38.65,49.63c-1.16-.23-2.31-.43-3.47-.64v.15c-11.62-2.09-23.4-3.15-35.2-3.15-11.33.03-22.63,1.04-33.8,3l.07-.21c-1.63.29-3.27.59-4.91.91h0ZM190.93,108.39c2.88,13.67,4.31,27.63,4.28,41.61.04,13.97-1.36,27.92-4.21,41.59-13.39,2.95-27.05,4.43-40.74,4.38-13.67.04-27.31-1.43-40.67-4.37v-.16c-5.69-27.4-5.69-55.73,0-83.14,26.82-5.75,54.52-5.73,81.33.07h0Z"></path>
                    
                    <path id="Path" class="cls-3" d="M105.12,158.96c3.98,3.9,9.31,6.1,14.87,6.15,6.54,0,10.18-2.82,10.18-6.95,0-4.37-3.32-6.39-10.83-6.39-2.26,0-5.91,0-6.71.09v-10.03c.97.08,4.6.08,6.71.08,5.98,0,9.94-1.94,9.94-5.98,0-4.28-4.37-6.47-10.02-6.47-5.14,0-10.09,2.03-13.74,5.65l-5.66-7.11c5.28-5.75,12.81-8.88,20.61-8.58,12.61,0,20.37,5.65,20.37,14.62-.43,6.42-5.4,11.61-11.8,12.29,6.89.45,12.32,6.03,12.61,12.93,0,9.29-8.32,15.84-21.25,15.84-8.02.44-15.82-2.73-21.26-8.64l5.99-7.52v.02Z"></path><path id="Shape-2" class="cls-3" d="M150.3,120.25h21.26c16.89,0,28.61,10.75,28.61,27s-11.72,26.92-28.61,26.92h-21.26v-53.92h0ZM171.57,164.06c4.53.22,8.94-1.48,12.16-4.68,3.21-3.2,4.93-7.61,4.73-12.13.34-4.57-1.34-9.07-4.57-12.31-3.24-3.25-7.74-4.92-12.31-4.58h-9.78v33.71h9.78Z"></path>
    
                </g>
            </svg>